<svg width="134" height="134" viewBox="0 0 134 134" fill="none" xmlns="http://www.w3.org/2000/svg">
<g id="Shopping / gift">
<g id="Vector" filter="url(#filter0_d_221_78)">
<path d="M100.5 39.0832H98.5458C99.82 36.4745 100.488 33.6115 100.5 30.7082C100.517 26.8184 99.3693 23.0126 97.2048 19.7807C95.0403 16.5487 91.9581 14.0385 88.3548 12.5732C84.7516 11.1079 80.7922 10.7545 76.9865 11.5585C73.1807 12.3626 69.7026 14.2873 67 17.0849C64.2974 14.2873 60.8193 12.3626 57.0135 11.5585C53.2078 10.7545 49.2484 11.1079 45.6452 12.5732C42.0419 14.0385 38.9597 16.5487 36.7952 19.7807C34.6308 23.0126 33.4831 26.8184 33.5 30.7082C33.5119 33.6115 34.18 36.4745 35.4542 39.0832H33.5C29.0576 39.0832 24.7972 40.8479 21.656 43.9892C18.5147 47.1304 16.75 51.3908 16.75 55.8332V66.9999C16.75 68.4807 17.3382 69.9008 18.3853 70.9479C19.4324 71.9949 20.8525 72.5832 22.3333 72.5832H27.9167V106.083C27.9167 110.526 29.6814 114.786 32.8226 117.927C35.9639 121.068 40.2243 122.833 44.6667 122.833H89.3333C93.7757 122.833 98.0361 121.068 101.177 117.927C104.319 114.786 106.083 110.526 106.083 106.083V72.5832H111.667C113.147 72.5832 114.568 71.9949 115.615 70.9479C116.662 69.9008 117.25 68.4807 117.25 66.9999V55.8332C117.25 51.3908 115.485 47.1304 112.344 43.9892C109.203 40.8479 104.942 39.0832 100.5 39.0832ZM61.4167 111.667H44.6667C43.1859 111.667 41.7657 111.078 40.7187 110.031C39.6716 108.984 39.0833 107.564 39.0833 106.083V72.5832H61.4167V111.667ZM61.4167 61.4165H27.9167V55.8332C27.9167 54.3524 28.5049 52.9323 29.552 51.8852C30.5991 50.8381 32.0192 50.2499 33.5 50.2499H61.4167V61.4165ZM61.4167 39.0832H53.0417C51.3853 39.0832 49.766 38.592 48.3888 37.6718C47.0115 36.7515 45.9381 35.4435 45.3042 33.9132C44.6703 32.3828 44.5044 30.6989 44.8276 29.0743C45.1507 27.4497 45.9484 25.9574 47.1196 24.7862C48.2909 23.6149 49.7832 22.8173 51.4078 22.4941C53.0324 22.171 54.7163 22.3368 56.2466 22.9707C57.777 23.6046 59.085 24.678 60.0052 26.0553C60.9255 27.4326 61.4167 29.0518 61.4167 30.7082V39.0832ZM72.5833 30.7082C72.5833 29.0518 73.0745 27.4326 73.9948 26.0553C74.915 24.678 76.223 23.6046 77.7534 22.9707C79.2837 22.3368 80.9676 22.171 82.5922 22.4941C84.2168 22.8173 85.7091 23.6149 86.8804 24.7862C88.0516 25.9574 88.8493 27.4497 89.1724 29.0743C89.4956 30.6989 89.3297 32.3828 88.6958 33.9132C88.0619 35.4435 86.9885 36.7515 85.6112 37.6718C84.234 38.592 82.6148 39.0832 80.9583 39.0832H72.5833V30.7082ZM94.9167 106.083C94.9167 107.564 94.3284 108.984 93.2813 110.031C92.2343 111.078 90.8141 111.667 89.3333 111.667H72.5833V72.5832H94.9167V106.083ZM106.083 61.4165H72.5833V50.2499H100.5C101.981 50.2499 103.401 50.8381 104.448 51.8852C105.495 52.9323 106.083 54.3524 106.083 55.8332V61.4165Z" fill="white"/>
</g>
</g>
<defs>
<filter id="filter0_d_221_78" x="12.75" y="11.1377" width="108.5" height="119.695" filterUnits="userSpaceOnUse" color-interpolation-filters="sRGB">
<feFlood flood-opacity="0" result="BackgroundImageFix"/>
<feColorMatrix in="SourceAlpha" type="matrix" values="0 0 0 0 0 0 0 0 0 0 0 0 0 0 0 0 0 0 127 0" result="hardAlpha"/>
<feOffset dy="4"/>
<feGaussianBlur stdDeviation="2"/>
<feComposite in2="hardAlpha" operator="out"/>
<feColorMatrix type="matrix" values="0 0 0 0 0 0 0 0 0 0 0 0 0 0 0 0 0 0 0.25 0"/>
<feBlend mode="normal" in2="BackgroundImageFix" result="effect1_dropShadow_221_78"/>
<feBlend mode="normal" in="SourceGraphic" in2="effect1_dropShadow_221_78" result="shape"/>
</filter>
</defs>
</svg>
