<svg width="16" height="16" viewBox="0 0 16 16" fill="none" xmlns="http://www.w3.org/2000/svg">
<g id="User Interface / Like">
<path id="Vector" d="M14.2002 6.72019C14.0128 6.49529 13.7784 6.31425 13.5135 6.18984C13.2485 6.06543 12.9595 6.00069 12.6668 6.00019H9.62683L10.0002 5.04686C10.1555 4.62945 10.2072 4.1806 10.1509 3.73881C10.0946 3.29702 9.93196 2.87548 9.67695 2.51035C9.42195 2.14521 9.08218 1.84739 8.68679 1.64242C8.2914 1.43745 7.85219 1.33146 7.40683 1.33353C7.27859 1.33379 7.15315 1.37104 7.04554 1.44081C6.93794 1.51057 6.85274 1.60989 6.80016 1.72686L4.90016 6.00019H3.3335C2.80306 6.00019 2.29436 6.21091 1.91928 6.58598C1.54421 6.96105 1.3335 7.46976 1.3335 8.00019V12.6669C1.3335 13.1973 1.54421 13.706 1.91928 14.0811C2.29436 14.4561 2.80306 14.6669 3.3335 14.6669H11.8202C12.288 14.6667 12.741 14.5025 13.1004 14.2029C13.4597 13.9032 13.7026 13.4871 13.7868 13.0269L14.6335 8.36019C14.6859 8.07178 14.6742 7.77538 14.5993 7.49198C14.5244 7.20857 14.3882 6.9451 14.2002 6.72019ZM4.66683 13.3335H3.3335C3.15669 13.3335 2.98712 13.2633 2.86209 13.1383C2.73707 13.0132 2.66683 12.8437 2.66683 12.6669V8.00019C2.66683 7.82338 2.73707 7.65381 2.86209 7.52879C2.98712 7.40376 3.15669 7.33353 3.3335 7.33353H4.66683V13.3335ZM13.3335 8.12019L12.4868 12.7869C12.4584 12.9422 12.3758 13.0824 12.2538 13.1825C12.1317 13.2826 11.978 13.3361 11.8202 13.3335H6.00016V6.80686L7.8135 2.72686C8.00015 2.78128 8.1735 2.8738 8.3226 2.99858C8.4717 3.12337 8.59331 3.2777 8.67976 3.45185C8.76621 3.62601 8.81562 3.81619 8.82487 4.01039C8.83412 4.2046 8.803 4.39861 8.7335 4.58019L8.38016 5.53353C8.30487 5.73503 8.27946 5.95176 8.30608 6.16521C8.3327 6.37867 8.41058 6.58251 8.53305 6.75935C8.65553 6.93619 8.81897 7.08077 9.00943 7.18075C9.1999 7.28073 9.41172 7.33315 9.62683 7.33353H12.6668C12.7648 7.33337 12.8615 7.35479 12.9503 7.39627C13.039 7.43775 13.1175 7.49827 13.1802 7.57353C13.2444 7.64774 13.2914 7.73522 13.3179 7.82972C13.3444 7.92422 13.3498 8.0234 13.3335 8.12019Z" fill="black"/>
</g>
</svg>
