<svg width="134" height="134" viewBox="0 0 134 134" fill="none" xmlns="http://www.w3.org/2000/svg">
<g id="Users / users">
<g id="Vector" filter="url(#filter0_d_221_76)">
<path d="M68.6749 68.2282C71.6541 65.6494 74.0436 62.4599 75.6813 58.8762C77.319 55.2925 78.1666 51.3984 78.1666 47.4582C78.1666 40.0542 75.2254 32.9535 69.99 27.7181C64.7546 22.4827 57.6539 19.5415 50.2499 19.5415C42.846 19.5415 35.7452 22.4827 30.5099 27.7181C25.2745 32.9535 22.3333 40.0542 22.3333 47.4582C22.3332 51.3984 23.1808 55.2925 24.8185 58.8762C26.4563 62.4599 28.8458 65.6494 31.8249 68.2282C24.009 71.7674 17.3779 77.4827 12.7242 84.6909C8.0706 91.899 5.59147 100.295 5.58325 108.875C5.58325 110.356 6.17149 111.776 7.21857 112.823C8.26565 113.87 9.68579 114.458 11.1666 114.458C12.6474 114.458 14.0675 113.87 15.1146 112.823C16.1617 111.776 16.7499 110.356 16.7499 108.875C16.7499 99.9901 20.2794 91.4692 26.5618 85.1868C32.8443 78.9043 41.3652 75.3748 50.2499 75.3748C59.1347 75.3748 67.6555 78.9043 73.938 85.1868C80.2205 91.4692 83.7499 99.9901 83.7499 108.875C83.7499 110.356 84.3382 111.776 85.3852 112.823C86.4323 113.87 87.8525 114.458 89.3333 114.458C90.814 114.458 92.2342 113.87 93.2813 112.823C94.3283 111.776 94.9166 110.356 94.9166 108.875C94.9084 100.295 92.4292 91.899 87.7756 84.6909C83.122 77.4827 76.4908 71.7674 68.6749 68.2282V68.2282ZM50.2499 64.2082C46.9371 64.2082 43.6986 63.2258 40.9441 61.3853C38.1896 59.5448 36.0427 56.9288 34.7749 53.8681C33.5072 50.8075 33.1755 47.4396 33.8218 44.1904C34.4681 40.9412 36.0634 37.9567 38.4059 35.6141C40.7484 33.2716 43.733 31.6763 46.9822 31.03C50.2313 30.3837 53.5992 30.7154 56.6599 31.9832C59.7205 33.251 62.3365 35.3978 64.177 38.1524C66.0175 40.9069 66.9999 44.1453 66.9999 47.4582C66.9999 51.9005 65.2352 56.161 62.094 59.3022C58.9527 62.4434 54.6923 64.2082 50.2499 64.2082ZM104.632 65.9948C108.205 61.9711 110.539 57.0004 111.353 51.6811C112.167 46.3617 111.426 40.9205 109.22 36.0123C107.013 31.1042 103.436 26.9383 98.9169 24.0161C94.3982 21.0939 89.1312 19.5401 83.7499 19.5415C82.2691 19.5415 80.849 20.1297 79.8019 21.1768C78.7548 22.2239 78.1666 23.644 78.1666 25.1248C78.1666 26.6056 78.7548 28.0258 79.8019 29.0728C80.849 30.1199 82.2691 30.7082 83.7499 30.7082C88.1923 30.7082 92.4527 32.4729 95.594 35.6141C98.7352 38.7554 100.5 43.0158 100.5 47.4582C100.492 50.3908 99.7143 53.2699 98.2446 55.8076C96.7749 58.3453 94.6646 60.4527 92.1249 61.919C91.2971 62.3965 90.6057 63.0785 90.117 63.8996C89.6282 64.7208 89.3583 65.6537 89.3333 66.609C89.3099 67.5568 89.5283 68.495 89.9679 69.3351C90.4074 70.1752 91.0537 70.8895 91.8458 71.4107L94.0233 72.8623L94.7491 73.2532C101.479 76.4453 107.157 81.4941 111.114 87.8051C115.07 94.1161 117.141 101.426 117.082 108.875C117.082 110.356 117.671 111.776 118.718 112.823C119.765 113.87 121.185 114.458 122.666 114.458C124.147 114.458 125.567 113.87 126.614 112.823C127.661 111.776 128.249 110.356 128.249 108.875C128.295 100.307 126.149 91.8694 122.015 84.3643C117.881 76.8593 111.897 70.5358 104.632 65.9948V65.9948Z" fill="white"/>
</g>
</g>
<defs>
<filter id="filter0_d_221_76" x="1.58325" y="19.5415" width="130.667" height="102.917" filterUnits="userSpaceOnUse" color-interpolation-filters="sRGB">
<feFlood flood-opacity="0" result="BackgroundImageFix"/>
<feColorMatrix in="SourceAlpha" type="matrix" values="0 0 0 0 0 0 0 0 0 0 0 0 0 0 0 0 0 0 127 0" result="hardAlpha"/>
<feOffset dy="4"/>
<feGaussianBlur stdDeviation="2"/>
<feComposite in2="hardAlpha" operator="out"/>
<feColorMatrix type="matrix" values="0 0 0 0 0 0 0 0 0 0 0 0 0 0 0 0 0 0 0.25 0"/>
<feBlend mode="normal" in2="BackgroundImageFix" result="effect1_dropShadow_221_76"/>
<feBlend mode="normal" in="SourceGraphic" in2="effect1_dropShadow_221_76" result="shape"/>
</filter>
</defs>
</svg>
